<svg width="1197" height="427" viewBox="0 0 1197 427" fill="none" xmlns="http://www.w3.org/2000/svg">
<path d="M611.388 132.257C609.847 134.79 608.25 136.661 606.598 137.873C605.057 138.974 603.02 139.524 600.487 139.524C598.065 139.524 595.422 138.699 592.559 137.047C589.806 135.285 586.558 133.413 582.814 131.431C579.07 129.449 574.776 127.632 569.931 125.981C565.086 124.219 559.415 123.338 552.919 123.338C541.467 123.338 532.878 125.925 527.152 131.101C521.426 136.166 518.563 142.828 518.563 151.086C518.563 156.372 520.105 160.776 523.188 164.3C526.381 167.713 530.511 170.686 535.576 173.219C540.751 175.751 546.587 178.009 553.084 179.991C559.58 181.973 566.242 184.175 573.069 186.597C579.896 188.91 586.558 191.663 593.055 194.856C599.551 198.049 605.332 202.068 610.397 206.913C615.573 211.758 619.702 217.704 622.785 224.751C625.978 231.689 627.575 240.167 627.575 250.187C627.575 261.089 625.648 271.329 621.794 280.909C618.05 290.379 612.6 298.692 605.442 305.849C598.285 312.897 589.421 318.457 578.85 322.531C568.389 326.606 556.497 328.643 543.174 328.643C535.576 328.643 527.978 327.872 520.38 326.33C512.893 324.789 505.625 322.642 498.578 319.889C491.641 317.136 485.089 313.833 478.923 309.979C472.757 306.125 467.361 301.83 462.736 297.095L477.271 273.641C478.482 271.88 480.079 270.448 482.061 269.347C484.043 268.136 486.135 267.53 488.338 267.53C491.311 267.53 494.449 268.631 497.752 270.834C501.056 273.036 504.854 275.458 509.149 278.101C513.443 280.744 518.398 283.166 524.014 285.368C529.74 287.571 536.567 288.672 544.495 288.672C556.057 288.672 564.976 286.029 571.252 280.744C577.639 275.458 580.832 267.585 580.832 257.125C580.832 251.068 579.235 246.168 576.042 242.425C572.959 238.681 568.885 235.543 563.82 233.01C558.755 230.477 552.974 228.33 546.477 226.568C539.98 224.696 533.319 222.659 526.492 220.457C519.665 218.255 513.003 215.612 506.506 212.529C500.009 209.446 494.229 205.372 489.163 200.307C484.098 195.241 479.969 188.965 476.776 181.477C473.693 173.99 472.151 164.685 472.151 153.564C472.151 144.645 473.913 136.001 477.436 127.632C480.96 119.264 486.135 111.831 492.962 105.334C499.789 98.8378 508.158 93.6074 518.068 89.6434C528.088 85.6793 539.54 83.6973 552.423 83.6973C566.848 83.6973 580.171 85.9546 592.394 90.4692C604.727 94.8737 615.132 101.04 623.611 108.968L611.388 132.257Z" fill="black"/>
<path d="M745.312 185.276H755.057C763.205 185.276 769.096 182.744 772.73 177.678L833.347 96.5805C836.21 92.7265 839.348 90.0838 842.762 88.6524C846.175 87.1108 850.359 86.34 855.315 86.34H898.258L821.95 184.615C816.995 191.002 811.875 195.572 806.59 198.324C810.444 199.866 813.912 201.903 816.995 204.436C820.079 206.858 823.052 210.107 825.914 214.181L904.205 326H860.104C857.242 326 854.764 325.78 852.672 325.339C850.69 324.899 848.928 324.293 847.386 323.522C845.845 322.752 844.523 321.816 843.422 320.715C842.321 319.503 841.275 318.127 840.284 316.585L778.676 230.367C776.584 227.394 774.107 225.302 771.244 224.091C768.381 222.769 764.362 222.109 759.186 222.109H745.312V326H695.761V86.34H745.312V185.276Z" fill="black"/>
<path d="M1098.43 234.992L1072.5 161.657C1070.95 157.803 1069.3 153.288 1067.54 148.113C1065.89 142.938 1064.29 137.322 1062.75 131.266C1061.21 137.432 1059.56 143.158 1057.8 148.443C1056.14 153.619 1054.55 158.133 1053.01 161.987L1027.24 234.992H1098.43ZM1181.67 326H1143.19C1138.89 326 1135.37 325.009 1132.62 323.027C1129.97 320.935 1127.99 318.292 1126.67 315.099L1110.48 269.347H1015.02L998.83 315.099C997.729 317.852 995.802 320.384 993.05 322.697C990.297 324.899 986.828 326 982.644 326H943.829L1037.48 86.34H1088.19L1181.67 326Z" fill="black"/>
<path d="M878.243 400.582C880.735 400.582 882.898 400.363 884.732 399.925C886.594 399.46 888.361 398.83 890.031 398.036V387.234H882.597C881.885 387.234 881.323 387.042 880.913 386.659C880.502 386.248 880.297 385.755 880.297 385.18V378.937H900.053V402.965C898.547 404.06 896.972 405.018 895.329 405.84C893.714 406.634 891.975 407.291 890.113 407.811C888.278 408.331 886.307 408.715 884.199 408.961C882.09 409.235 879.817 409.372 877.38 409.372C873.054 409.372 869.07 408.619 865.428 407.113C861.786 405.607 858.637 403.512 855.981 400.829C853.325 398.145 851.244 394.942 849.738 391.218C848.259 387.494 847.52 383.427 847.52 379.019C847.52 374.556 848.246 370.462 849.697 366.738C851.148 363.014 853.202 359.81 855.858 357.127C858.541 354.443 861.786 352.362 865.592 350.884C869.398 349.405 873.67 348.666 878.407 348.666C883.254 348.666 887.443 349.391 890.976 350.843C894.535 352.267 897.547 354.129 900.012 356.429L896.808 361.44C896.178 362.453 895.343 362.959 894.303 362.959C893.645 362.959 892.975 362.74 892.29 362.302C891.414 361.782 890.51 361.262 889.579 360.741C888.676 360.221 887.662 359.769 886.54 359.386C885.444 359.003 884.199 358.688 882.802 358.441C881.433 358.195 879.845 358.072 878.038 358.072C875.108 358.072 872.452 358.564 870.069 359.55C867.714 360.536 865.702 361.946 864.032 363.781C862.361 365.615 861.074 367.82 860.171 370.394C859.267 372.967 858.815 375.843 858.815 379.019C858.815 382.442 859.294 385.495 860.253 388.178C861.211 390.834 862.553 393.08 864.278 394.914C866.003 396.749 868.057 398.159 870.439 399.145C872.821 400.103 875.423 400.582 878.243 400.582Z" fill="#D5A666"/>
<path d="M937.389 385.508V408.715H926.34V349.323H944.453C948.506 349.323 951.97 349.747 954.845 350.596C957.747 351.418 960.116 352.581 961.95 354.087C963.812 355.593 965.168 357.401 966.017 359.509C966.893 361.59 967.331 363.89 967.331 366.409C967.331 368.408 967.03 370.298 966.427 372.078C965.852 373.857 965.004 375.473 963.881 376.924C962.786 378.375 961.416 379.649 959.774 380.744C958.158 381.839 956.31 382.716 954.229 383.373C955.625 384.167 956.83 385.303 957.843 386.782L972.712 408.715H962.772C961.814 408.715 960.992 408.523 960.308 408.14C959.65 407.756 959.089 407.209 958.624 406.497L946.137 387.48C945.672 386.768 945.152 386.261 944.576 385.96C944.029 385.659 943.207 385.508 942.112 385.508H937.389ZM937.389 377.581H944.289C946.37 377.581 948.177 377.321 949.711 376.801C951.271 376.281 952.545 375.569 953.53 374.665C954.544 373.734 955.297 372.639 955.789 371.379C956.282 370.12 956.529 368.737 956.529 367.231C956.529 364.219 955.529 361.905 953.53 360.29C951.559 358.674 948.533 357.866 944.453 357.866H937.389V377.581Z" fill="#D5A666"/>
<path d="M1051.94 379.019C1051.94 383.373 1051.21 387.412 1049.76 391.136C1048.31 394.832 1046.27 398.036 1043.64 400.747C1041.01 403.457 1037.85 405.58 1034.15 407.113C1030.46 408.619 1026.36 409.372 1021.87 409.372C1017.38 409.372 1013.28 408.619 1009.55 407.113C1005.85 405.58 1002.68 403.457 1000.02 400.747C997.394 398.036 995.354 394.832 993.902 391.136C992.451 387.412 991.726 383.373 991.726 379.019C991.726 374.665 992.451 370.64 993.902 366.943C995.354 363.219 997.394 360.002 1000.02 357.291C1002.68 354.58 1005.85 352.472 1009.55 350.966C1013.28 349.433 1017.38 348.666 1021.87 348.666C1026.36 348.666 1030.46 349.433 1034.15 350.966C1037.85 352.499 1041.01 354.621 1043.64 357.332C1046.27 360.016 1048.31 363.219 1049.76 366.943C1051.21 370.64 1051.94 374.665 1051.94 379.019ZM1040.6 379.019C1040.6 375.76 1040.16 372.844 1039.29 370.27C1038.44 367.669 1037.21 365.465 1035.59 363.658C1033.98 361.85 1032 360.468 1029.68 359.509C1027.38 358.551 1024.78 358.072 1021.87 358.072C1018.97 358.072 1016.36 358.551 1014.03 359.509C1011.7 360.468 1009.72 361.85 1008.07 363.658C1006.46 365.465 1005.21 367.669 1004.34 370.27C1003.46 372.844 1003.02 375.76 1003.02 379.019C1003.02 382.277 1003.46 385.207 1004.34 387.809C1005.21 390.383 1006.46 392.573 1008.07 394.38C1009.72 396.16 1011.7 397.529 1014.03 398.488C1016.36 399.446 1018.97 399.925 1021.87 399.925C1024.78 399.925 1027.38 399.446 1029.68 398.488C1032 397.529 1033.98 396.16 1035.59 394.38C1037.21 392.573 1038.44 390.383 1039.29 387.809C1040.16 385.207 1040.6 382.277 1040.6 379.019Z" fill="#D5A666"/>
<path d="M1099.88 399.802C1102.01 399.802 1103.91 399.446 1105.58 398.734C1107.28 398.022 1108.71 397.023 1109.86 395.736C1111.03 394.449 1111.92 392.888 1112.53 391.053C1113.16 389.219 1113.47 387.165 1113.47 384.892V349.323H1124.52V384.892C1124.52 388.425 1123.94 391.697 1122.79 394.709C1121.67 397.694 1120.04 400.281 1117.91 402.472C1115.77 404.635 1113.18 406.333 1110.14 407.565C1107.1 408.77 1103.68 409.372 1099.88 409.372C1096.07 409.372 1092.65 408.77 1089.61 407.565C1086.57 406.333 1083.98 404.635 1081.84 402.472C1079.74 400.281 1078.11 397.694 1076.96 394.709C1075.83 391.697 1075.27 388.425 1075.27 384.892V349.323H1086.32V384.851C1086.32 387.124 1086.62 389.178 1087.22 391.012C1087.85 392.847 1088.74 394.421 1089.89 395.736C1091.04 397.023 1092.45 398.022 1094.13 398.734C1095.82 399.446 1097.74 399.802 1099.88 399.802Z" fill="#D5A666"/>
<path d="M1162.39 387.809V408.715H1151.34V349.323H1170.69C1174.66 349.323 1178.09 349.788 1180.99 350.719C1183.9 351.65 1186.29 352.951 1188.18 354.621C1190.07 356.292 1191.47 358.291 1192.37 360.618C1193.28 362.946 1193.73 365.492 1193.73 368.258C1193.73 371.133 1193.25 373.775 1192.29 376.185C1191.33 378.567 1189.89 380.621 1187.98 382.346C1186.06 384.071 1183.66 385.413 1180.79 386.371C1177.91 387.329 1174.55 387.809 1170.69 387.809H1162.39ZM1162.39 379.183H1170.69C1172.71 379.183 1174.48 378.937 1175.98 378.444C1177.49 377.924 1178.74 377.198 1179.72 376.267C1180.71 375.309 1181.45 374.159 1181.94 372.817C1182.43 371.448 1182.68 369.928 1182.68 368.258C1182.68 366.67 1182.43 365.232 1181.94 363.945C1181.45 362.658 1180.71 361.563 1179.72 360.659C1178.74 359.756 1177.49 359.071 1175.98 358.606C1174.48 358.113 1172.71 357.866 1170.69 357.866H1162.39V379.183Z" fill="#D5A666"/>
<path d="M176.606 38.7148V121.234L203.229 145.221V61.7073L176.606 38.7148Z" fill="url(#paint0_linear_216_66)"/>
<path d="M313.07 81.9668V121.555L233.187 198.456V159.343L313.07 81.9668Z" fill="url(#paint1_linear_216_66)"/>
<path d="M293.115 211.781H376.369L349.689 238.419H267.414L293.115 211.781Z" fill="url(#paint2_linear_216_66)"/>
<path d="M216.559 268.361H253.179L333.048 348.23H293.114L216.559 268.361Z" fill="url(#paint3_linear_216_66)"/>
<path d="M176.606 302.551V386.885L203.229 412.5V328.151L176.606 302.551Z" fill="url(#paint4_linear_216_66)"/>
<path d="M146.67 248.395V289.208L66.7871 368.212V329.156L146.67 248.395Z" fill="url(#paint5_linear_216_66)"/>
<path d="M111.649 211.781L87.7489 238.419H0L26.8534 211.781H111.649Z" fill="url(#paint6_linear_216_66)"/>
<path d="M126.699 181.847H167.296L86.7501 98.6504H47.4497L126.699 181.847Z" fill="url(#paint7_linear_216_66)"/>
<defs>
<linearGradient id="paint0_linear_216_66" x1="176.607" y1="91.9674" x2="203.229" y2="91.9674" gradientUnits="userSpaceOnUse">
<stop stop-color="#CC9659"/>
<stop offset="0.2784" stop-color="#A4703A"/>
<stop offset="0.4031" stop-color="#C99557"/>
<stop offset="0.5503" stop-color="#F0BC75"/>
<stop offset="0.6275" stop-color="#FFCB81"/>
<stop offset="0.7183" stop-color="#EEBA73"/>
<stop offset="0.8986" stop-color="#C08C50"/>
<stop offset="1" stop-color="#A4703A"/>
</linearGradient>
<linearGradient id="paint1_linear_216_66" x1="233.189" y1="140.211" x2="313.071" y2="140.211" gradientUnits="userSpaceOnUse">
<stop stop-color="#CC9659"/>
<stop offset="0.2784" stop-color="#A4703A"/>
<stop offset="0.4031" stop-color="#C99557"/>
<stop offset="0.5503" stop-color="#F0BC75"/>
<stop offset="0.6275" stop-color="#FFCB81"/>
<stop offset="0.7183" stop-color="#EEBA73"/>
<stop offset="0.8986" stop-color="#C08C50"/>
<stop offset="1" stop-color="#A4703A"/>
</linearGradient>
<linearGradient id="paint2_linear_216_66" x1="267.418" y1="225.1" x2="376.371" y2="225.1" gradientUnits="userSpaceOnUse">
<stop stop-color="#CC9659"/>
<stop offset="0.2784" stop-color="#A4703A"/>
<stop offset="0.4031" stop-color="#C99557"/>
<stop offset="0.5503" stop-color="#F0BC75"/>
<stop offset="0.6275" stop-color="#FFCB81"/>
<stop offset="0.7183" stop-color="#EEBA73"/>
<stop offset="0.8986" stop-color="#C08C50"/>
<stop offset="1" stop-color="#A4703A"/>
</linearGradient>
<linearGradient id="paint3_linear_216_66" x1="216.562" y1="308.295" x2="333.05" y2="308.295" gradientUnits="userSpaceOnUse">
<stop stop-color="#CC9659"/>
<stop offset="0.2784" stop-color="#A4703A"/>
<stop offset="0.4031" stop-color="#C99557"/>
<stop offset="0.5503" stop-color="#F0BC75"/>
<stop offset="0.6275" stop-color="#FFCB81"/>
<stop offset="0.7183" stop-color="#EEBA73"/>
<stop offset="0.8986" stop-color="#C08C50"/>
<stop offset="1" stop-color="#A4703A"/>
</linearGradient>
<linearGradient id="paint4_linear_216_66" x1="176.607" y1="357.525" x2="203.229" y2="357.525" gradientUnits="userSpaceOnUse">
<stop stop-color="#CC9659"/>
<stop offset="0.2784" stop-color="#A4703A"/>
<stop offset="0.4031" stop-color="#C99557"/>
<stop offset="0.5503" stop-color="#F0BC75"/>
<stop offset="0.6275" stop-color="#FFCB81"/>
<stop offset="0.7183" stop-color="#EEBA73"/>
<stop offset="0.8986" stop-color="#C08C50"/>
<stop offset="1" stop-color="#A4703A"/>
</linearGradient>
<linearGradient id="paint5_linear_216_66" x1="66.7898" y1="308.303" x2="146.672" y2="308.303" gradientUnits="userSpaceOnUse">
<stop stop-color="#CC9659"/>
<stop offset="0.2784" stop-color="#A4703A"/>
<stop offset="0.4031" stop-color="#C99557"/>
<stop offset="0.5503" stop-color="#F0BC75"/>
<stop offset="0.6275" stop-color="#FFCB81"/>
<stop offset="0.7183" stop-color="#EEBA73"/>
<stop offset="0.8986" stop-color="#C08C50"/>
<stop offset="1" stop-color="#A4703A"/>
</linearGradient>
<linearGradient id="paint6_linear_216_66" x1="0.00370868" y1="225.1" x2="111.651" y2="225.1" gradientUnits="userSpaceOnUse">
<stop stop-color="#CC9659"/>
<stop offset="0.2784" stop-color="#A4703A"/>
<stop offset="0.4031" stop-color="#C99557"/>
<stop offset="0.5503" stop-color="#F0BC75"/>
<stop offset="0.6275" stop-color="#FFCB81"/>
<stop offset="0.7183" stop-color="#EEBA73"/>
<stop offset="0.8986" stop-color="#C08C50"/>
<stop offset="1" stop-color="#A4703A"/>
</linearGradient>
<linearGradient id="paint7_linear_216_66" x1="47.4537" y1="140.248" x2="167.298" y2="140.248" gradientUnits="userSpaceOnUse">
<stop stop-color="#CC9659"/>
<stop offset="0.2784" stop-color="#A4703A"/>
<stop offset="0.4031" stop-color="#C99557"/>
<stop offset="0.5503" stop-color="#F0BC75"/>
<stop offset="0.6275" stop-color="#FFCB81"/>
<stop offset="0.7183" stop-color="#EEBA73"/>
<stop offset="0.8986" stop-color="#C08C50"/>
<stop offset="1" stop-color="#A4703A"/>
</linearGradient>
</defs>
</svg>
